{"title":"American.Ninja.Warrior.Season.6.720p.HDTV.x264-BAJSKORV","uid":13162592,"size":47244334874,"categoryP":"video","categoryS":"hd___tv_shows","magnet":"?xt=urn:btih:24fcce5e15baefec9b0f268e4cdfd7edf5ed64ca&amp;dn=American.Ninja.Warrior.Season.6.720p.HDTV.x264-BAJSKORV&amp;tr=udp%3A%2F%2Ftracker.leechers-paradise.org%3A6969&amp;tr=udp%3A%2F%2Fzer0day.ch%3A1337&amp;tr=udp%3A%2F%2Fopen.demonii.com%3A1337&amp;tr=udp%3A%2F%2Ftracker.coppersurfer.tk%3A6969&amp;tr=udp%3A%2F%2Fexodus.desync.com%3A6969","seeders":5,"leechers":12,"uploader":"orangebirds","files":14,"time":1452169440,"description":"American.Ninja.Warrior.Season.6.720p.HDTV.x264-BAJSKORV\r\n\r\nAudio in AC3 2.0\r\n\r\nPlease help me seed, and don't forget to seed :) !\r\n\r\nGeneral\r\nUnique ID                                : 120820914767903988289525736411951801243 (0x5AE543031853F7F394BD5D80D844239B)\r\nComplete name                            :  american.ninja.warrior.s06e01.720p.hdtv.x264-bajskorv.mkv\r\nFormat                                   : Matroska\r\nFormat version                           : Version 4 / Version 2\r\nFile size                                : 2.87 GiB\r\nDuration                                 : 1h 25mn\r\nOverall bit rate                         : 4 805 Kbps\r\nEncoded date                             : UTC 2014-05-27 04:04:06\r\nWriting application                      : mkvmerge v6.7.0 ('Back to the Ground') 64bit built on Jan  8 2014 14:31:51\r\nWriting library                          : libebml v1.3.0 + libmatroska v1.4.1\r\n\r\nVideo\r\nID                                       : 1\r\nFormat                                   : AVC\r\nFormat/Info                              : Advanced Video Codec\r\nFormat profile                           :   \r\nFormat settings, CABAC                   : Yes\r\nFormat settings, ReFrames                : 5 frames\r\nCodec ID                                 : V_MPEG4/ISO/AVC\r\nDuration                                 : 1h 25mn\r\nBit rate                                 : 4 326 Kbps\r\nWidth                                    : 1 280 pixels\r\nHeight                                   : 720 pixels\r\nDisplay aspect ratio                     : 16:9\r\nFrame rate mode                          : Constant\r\nFrame rate                               : 59.880 fps\r\nOriginal frame rate                      : 59.940 fps\r\nColor space                              : YUV\r\nChroma subsampling                       : 4:2:0\r\nBit depth                                : 8 bits\r\nScan type                                : Progressive\r\nBits/(Pixel*Frame)                       : 0.078\r\nStream size                              : 2.58 GiB (90%)\r\nWriting library                          : x264 core 142 r2431 ac76440\r\nEncoding settings                        : cabac=1 / ref=5 / deblock=1:1:1 / analyse=0x3:0x113 / me=umh / subme=8 / psy=1 / psy_rd=1.00:0.00 / mixed_ref=1 / me_range=16 / chroma_me=1 / trellis=1 / 8x8dct=1 / cqm=0 / deadzone=21,11 / fast_pskip=0 / chroma_qp_offset=-2 / threads=16 / lookahead_threads=4 / sliced_threads=0 / nr=0 / decimate=1 / interlaced=0 / bluray_compat=0 / constrained_intra=0 / bframes=5 / b_pyramid=2 / b_adapt=2 / b_bias=0 / direct=3 / weightb=1 / open_gop=0 / weightp=2 / keyint=250 / keyint_min=25 / scenecut=40 / intra_refresh=0 / rc_lookahead=50 / rc=crf / mbtree=1 / crf=22.0 / qcomp=0.60 / qpmin=0 / qpmax=69 / qpstep=4 / ip_ratio=1.40 / aq=1:1.00\r\nLanguage                                 : English\r\nDefault                                  : No\r\nForced                                   : No\r\nMatrix coefficients                      : BT.709\r\n\r\nAudio\r\nID                                       : 2\r\nFormat                                   : AC-3\r\nFormat/Info                              : Audio Coding 3\r\nMode extension                           : CM (complete main)\r\nFormat settings, Endianness              : Big\r\nCodec ID                                 : A_AC3\r\nDuration                                 : 1h 25mn\r\nBit rate mode                            : Constant\r\nBit rate                                 : 384 Kbps\r\nChannel(s)                               : 2 channels\r\nChannel positions                        : Front: L R\r\nSampling rate                            : 48.0 KHz\r\nBit depth                                : 16 bits\r\nCompression mode                         : Lossy\r\nStream size                              : 235 MiB (8%)\r\nDefault                                  : Yes\r\nForced                                   : No","torrent":{"xt":"urn:btih:24fcce5e15baefec9b0f268e4cdfd7edf5ed64ca","amp;dn":"American.Ninja.Warrior.Season.6.720p.HDTV.x264-BAJSKORV","amp;tr":["udp%3A%2F%2Ftracker.leechers-paradise.org%3A6969","udp%3A%2F%2Fzer0day.ch%3A1337","udp%3A%2F%2Fopen.demonii.com%3A1337","udp%3A%2F%2Ftracker.coppersurfer.tk%3A6969","udp%3A%2F%2Fexodus.desync.com%3A6969"],"infoHash":"24fcce5e15baefec9b0f268e4cdfd7edf5ed64ca","infoHashBuffer":{"type":"Buffer","data":[36,252,206,94,21,186,239,236,155,15,38,142,76,223,215,237,245,237,100,202]},"announce":[],"urlList":[]}}